/* XPM */
static char * test_xpm = {
"50 50 2 1"
"0  c #00CED1",
"1  c #FFFFFF",
"00000000000000000000000000000000000000000000000000",
"01111111111111111111111111111111111111111111111110",
"01111111111111111111111111111111111111111111111110",
"01111111111111111111111111111111111111111111111110",
"01111111111111111111111111111111111111111111111110",
"01111111111111111111111111111111111111111111111110",
"01111111111111111111111111111111111111111111111110",
"01111111111111111111111111111111111111111111111110",
"01111111111111111111111111111111111111111111111110",
"01111111111111111111111111111111111111111111111110",
"01111111111111111111111111111111111111111111111110",
"01111111111111111111111111111111111111111111111110",
"01111111111111111111111111111111111111111111111110",
"01111111111111111111111111111111111111111111111110",
"01111111111111111111111111111111111111111111111110",
"01111111111111111111111111111111111111111111111110",
"01111111111111111111111111111111111111111111111110",
"01111111111111111111111111111111111111111111111110",
"01111111111111111111111111111111111111111111111110",
"01111111111111111111111111111111111111111111111110",
"01111111111111111111111111111111111111111111111110",
"01111111111111111111111111111111111111111111111110",
"01111111111111111111111111111111111111111111111110",
"01111111111111111111111111111111111111111111111110",
"01111111111111111111111111111111111111111111111110",
"01111111111111111111111111111111111111111111111110",
"01111111111111111111111111111111111111111111111110",
"01111111111111111111111111111111111111111111111110",
"01111111111111111111111111111111111111111111111110",
"01111111111111111111111111111111111111111111111110",
"01111111111111111111111111111111111111111111111110",
"01111111111111111111111111111111111111111111111110",
"01111111111111111111111111111111111111111111111110",
"01111111111111111111111111111111111111111111111110",
"01111111111111111111111111111111111111111111111110",
"01111111111111111111111111111111111111111111111110",
"01111111111111111111111111111111111111111111111110",
"01111111111111111111111111111111111111111111111110",
"01111111111111111111111111111111111111111111111110",
"01111111111111111111111111111111111111111111111110",
"01111111111111111111111111111111111111111111111110",
"01111111111111111111111111111111111111111111111110",
"01111111111111111111111111111111111111111111111110",
"01111111111111111111111111111111111111111111111110",
"01111111111111111111111111111111111111111111111110",
"01111111111111111111111111111111111111111111111110",
"01111111111111111111111111111111111111111111111110",
"01111111111111111111111111111111111111111111111110",
"01111111111111111111111111111111111111111111111110",
"00000000000000000000000000000000000000000000000000",
};
